<svg style="overflow: hidden; position: relative; top: -0.316666px;" xmlns="http://www.w3.org/2000/svg" width="640" version="1.1" height="480"><desc>Created with Raphaël 2.0.1</desc><defs></defs><rect style="" stroke="none" fill="#111111" ry="0" rx="0" r="0" height="480" width="640" y="0" x="0"></rect><path opacity="0.2" stroke-width="6" d="M0,0L0,480" stroke="#999999" fill="none" style="opacity: 0.2;"></path><path opacity="0.2" stroke-width="11" d="M5,0L5,480" stroke="#999999" fill="none" style="opacity: 0.2;"></path><path opacity="0.2" stroke-width="9" d="M21,0L21,480" stroke="#999999" fill="none" style="opacity: 0.2;"></path><path opacity="0.2" stroke-width="12" d="M23,0L23,480" stroke="#999999" fill="none" style="opacity: 0.2;"></path><path opacity="0.2" stroke-width="6" d="M31,0L31,480" stroke="#999999" fill="none" style="opacity: 0.2;"></path><path opacity="0.2" stroke-width="2" d="M34,0L34,480" stroke="#999999" fill="none" style="opacity: 0.2;"></path><path opacity="0.2" stroke-width="5" d="M38,0L38,480" stroke="#999999" fill="none" style="opacity: 0.2;"></path><path opacity="0.2" stroke-width="11" d="M58,0L58,480" stroke="#999999" fill="none" style="opacity: 0.2;"></path><path opacity="0.2" stroke-width="10" d="M66,0L66,480" stroke="#999999" fill="none" style="opacity: 0.2;"></path><path opacity="0.2" stroke-width="7" d="M69,0L69,480" stroke="#999999" fill="none" style="opacity: 0.2;"></path><path opacity="0.2" stroke-width="6" d="M76,0L76,480" stroke="#999999" fill="none" style="opacity: 0.2;"></path><path opacity="0.2" stroke-width="10" d="M89,0L89,480" stroke="#999999" fill="none" style="opacity: 0.2;"></path><path opacity="0.2" stroke-width="12" d="M107,0L107,480" stroke="#999999" fill="none" style="opacity: 0.2;"></path><path opacity="0.2" stroke-width="6" d="M108,0L108,480" stroke="#999999" fill="none" style="opacity: 0.2;"></path><path opacity="0.2" stroke-width="3" d="M120,0L120,480" stroke="#999999" fill="none" style="opacity: 0.2;"></path><path opacity="0.2" stroke-width="5" d="M128,0L128,480" stroke="#999999" fill="none" style="opacity: 0.2;"></path><path opacity="0.2" stroke-width="12" d="M147,0L147,480" stroke="#999999" fill="none" style="opacity: 0.2;"></path><path opacity="0.2" stroke-width="3" d="M151,0L151,480" stroke="#999999" fill="none" style="opacity: 0.2;"></path><path opacity="0.2" stroke-width="9" d="M159,0L159,480" stroke="#999999" fill="none" style="opacity: 0.2;"></path><path opacity="0.2" stroke-width="9" d="M159,0L159,480" stroke="#999999" fill="none" style="opacity: 0.2;"></path><path opacity="0.2" stroke-width="1" d="M179,0L179,480" stroke="#999999" fill="none" style="opacity: 0.2;"></path><path opacity="0.2" stroke-width="11" d="M186,0L186,480" stroke="#999999" fill="none" style="opacity: 0.2;"></path><path opacity="0.2" stroke-width="10" d="M196,0L196,480" stroke="#999999" fill="none" style="opacity: 0.2;"></path><path opacity="0.2" stroke-width="1" d="M207,0L207,480" stroke="#999999" fill="none" style="opacity: 0.2;"></path><path opacity="0.2" stroke-width="5" d="M208,0L208,480" stroke="#999999" fill="none" style="opacity: 0.2;"></path><path opacity="0.2" stroke-width="13" d="M212,0L212,480" stroke="#999999" fill="none" style="opacity: 0.2;"></path><path opacity="0.2" stroke-width="15" d="M228,0L228,480" stroke="#999999" fill="none" style="opacity: 0.2;"></path><path opacity="0.2" stroke-width="2" d="M233,0L233,480" stroke="#999999" fill="none" style="opacity: 0.2;"></path><path opacity="0.2" stroke-width="9" d="M237,0L237,480" stroke="#999999" fill="none" style="opacity: 0.2;"></path><path opacity="0.2" stroke-width="2" d="M237,0L237,480" stroke="#999999" fill="none" style="opacity: 0.2;"></path><path opacity="0.2" stroke-width="9" d="M252,0L252,480" stroke="#999999" fill="none" style="opacity: 0.2;"></path><path opacity="0.2" stroke-width="13" d="M262,0L262,480" stroke="#999999" fill="none" style="opacity: 0.2;"></path><path opacity="0.2" stroke-width="5" d="M275,0L275,480" stroke="#999999" fill="none" style="opacity: 0.2;"></path><path opacity="0.2" stroke-width="9" d="M286,0L286,480" stroke="#999999" fill="none" style="opacity: 0.2;"></path><path opacity="0.2" stroke-width="4" d="M298,0L298,480" stroke="#999999" fill="none" style="opacity: 0.2;"></path><path opacity="0.2" stroke-width="11" d="M303,0L303,480" stroke="#999999" fill="none" style="opacity: 0.2;"></path><path opacity="0.2" stroke-width="6" d="M309,0L309,480" stroke="#999999" fill="none" style="opacity: 0.2;"></path><path opacity="0.2" stroke-width="9" d="M322,0L322,480" stroke="#999999" fill="none" style="opacity: 0.2;"></path><path opacity="0.2" stroke-width="13" d="M331,0L331,480" stroke="#999999" fill="none" style="opacity: 0.2;"></path><path opacity="0.2" stroke-width="8" d="M333,0L333,480" stroke="#999999" fill="none" style="opacity: 0.2;"></path><path opacity="0.2" stroke-width="3" d="M333,0L333,480" stroke="#999999" fill="none" style="opacity: 0.2;"></path><path opacity="0.2" stroke-width="4" d="M343,0L343,480" stroke="#999999" fill="none" style="opacity: 0.2;"></path><path opacity="0.2" stroke-width="12" d="M343,0L343,480" stroke="#999999" fill="none" style="opacity: 0.2;"></path><path opacity="0.2" stroke-width="2" d="M361,0L361,480" stroke="#999999" fill="none" style="opacity: 0.2;"></path><path opacity="0.2" stroke-width="9" d="M371,0L371,480" stroke="#999999" fill="none" style="opacity: 0.2;"></path><path opacity="0.2" stroke-width="10" d="M381,0L381,480" stroke="#999999" fill="none" style="opacity: 0.2;"></path><path opacity="0.2" stroke-width="7" d="M382,0L382,480" stroke="#999999" fill="none" style="opacity: 0.2;"></path><path opacity="0.2" stroke-width="7" d="M395,0L395,480" stroke="#999999" fill="none" style="opacity: 0.2;"></path><path opacity="0.2" stroke-width="6" d="M402,0L402,480" stroke="#999999" fill="none" style="opacity: 0.2;"></path><path opacity="0.2" stroke-width="14" d="M411,0L411,480" stroke="#999999" fill="none" style="opacity: 0.2;"></path><path opacity="0.2" stroke-width="6" d="M414,0L414,480" stroke="#999999" fill="none" style="opacity: 0.2;"></path><path opacity="0.2" stroke-width="5" d="M430,0L430,480" stroke="#999999" fill="none" style="opacity: 0.2;"></path><path opacity="0.2" stroke-width="2" d="M438,0L438,480" stroke="#999999" fill="none" style="opacity: 0.2;"></path><path opacity="0.2" stroke-width="2" d="M440,0L440,480" stroke="#999999" fill="none" style="opacity: 0.2;"></path><path opacity="0.2" stroke-width="15" d="M454,0L454,480" stroke="#999999" fill="none" style="opacity: 0.2;"></path><path opacity="0.2" stroke-width="3" d="M454,0L454,480" stroke="#999999" fill="none" style="opacity: 0.2;"></path><path opacity="0.2" stroke-width="4" d="M457,0L457,480" stroke="#999999" fill="none" style="opacity: 0.2;"></path><path opacity="0.2" stroke-width="9" d="M467,0L467,480" stroke="#999999" fill="none" style="opacity: 0.2;"></path><path opacity="0.2" stroke-width="11" d="M467,0L467,480" stroke="#999999" fill="none" style="opacity: 0.2;"></path><path opacity="0.2" stroke-width="3" d="M482,0L482,480" stroke="#999999" fill="none" style="opacity: 0.2;"></path><path opacity="0.2" stroke-width="7" d="M486,0L486,480" stroke="#999999" fill="none" style="opacity: 0.2;"></path><path opacity="0.2" stroke-width="6" d="M494,0L494,480" stroke="#999999" fill="none" style="opacity: 0.2;"></path><path opacity="0.2" stroke-width="5" d="M494,0L494,480" stroke="#999999" fill="none" style="opacity: 0.2;"></path><path opacity="0.2" stroke-width="4" d="M513,0L513,480" stroke="#999999" fill="none" style="opacity: 0.2;"></path><path opacity="0.2" stroke-width="13" d="M521,0L521,480" stroke="#999999" fill="none" style="opacity: 0.2;"></path><path opacity="0.2" stroke-width="15" d="M525,0L525,480" stroke="#999999" fill="none" style="opacity: 0.2;"></path><path opacity="0.2" stroke-width="13" d="M535,0L535,480" stroke="#999999" fill="none" style="opacity: 0.2;"></path><path opacity="0.2" stroke-width="9" d="M551,0L551,480" stroke="#999999" fill="none" style="opacity: 0.2;"></path><path opacity="0.2" stroke-width="6" d="M566,0L566,480" stroke="#999999" fill="none" style="opacity: 0.2;"></path><path opacity="0.2" stroke-width="2" d="M585,0L585,480" stroke="#999999" fill="none" style="opacity: 0.2;"></path><path opacity="0.2" stroke-width="11" d="M599,0L599,480" stroke="#999999" fill="none" style="opacity: 0.2;"></path><path opacity="0.2" stroke-width="2" d="M616,0L616,480" stroke="#999999" fill="none" style="opacity: 0.2;"></path><path opacity="0.2" stroke-width="1" d="M625,0L625,480" stroke="#999999" fill="none" style="opacity: 0.2;"></path><path opacity="0.2" stroke-width="12" d="M626,0L626,480" stroke="#999999" fill="none" style="opacity: 0.2;"></path></svg>